<svg width="126" height="136" viewBox="0 0 126 136" fill="none" xmlns="http://www.w3.org/2000/svg">
<path d="M74.4756 79.1764C77.0679 80.8395 79.9792 82.8205 82.801 85.1987C86.4773 86.5968 90.5582 88.5784 95.2478 91.3838C95.9591 91.8093 96.6994 92.2125 97.4517 92.6094C97.5563 91.7704 97.5872 90.948 97.5461 90.1626C97.2861 85.2347 94.6719 87.0925 93.9852 87.5074C92.7384 88.2602 91.2513 87.6402 90.1674 86.2102C94.7181 83.6532 97.2833 78.6071 97.2861 74.5235C97.2889 70.8132 95.1377 72.0821 94.464 72.3771C91.045 73.8696 87.7429 66.5102 92.4565 61.0057C95.0214 58.3385 93.7227 56.4623 92.9537 55.5301C92.0805 54.471 91.1289 53.5084 90.214 52.7164C89.9447 53.2704 89.7349 53.7651 89.4767 54.199C87.601 64.2056 81.9466 74.0248 74.4756 79.1764Z" fill="#664B3A"/>
<path d="M52.8405 79.6765C52.8084 79.6559 52.7773 79.6349 52.7455 79.6143C52.7393 80.5022 52.7292 81.5114 52.743 82.6001C52.7754 82.5948 52.8078 82.5904 52.8402 82.5851L52.8405 79.6765Z" fill="#664B3A"/>
<path d="M43.889 84.941C46.464 82.4916 50.1634 80.8804 52.7459 79.6146C46.0254 74.952 40.0684 66.0045 37.7379 57.0676C37.0763 56.4603 36.4387 55.2414 35.7622 53.2251C35.0509 53.89 34.2983 54.7001 33.6135 55.5304C32.8442 56.463 31.5452 58.3391 34.1101 61.006C38.824 66.5106 35.5216 73.8703 32.1026 72.3774C31.4286 72.0824 29.278 70.8139 29.2805 74.5239C29.2839 78.6074 31.8484 83.6535 36.3992 86.2105C35.3153 87.6405 33.8285 88.2601 32.582 87.5077C31.895 87.0928 29.2805 85.235 29.0211 90.1629C28.9844 90.8591 29.0053 91.5849 29.0834 92.3251C29.6513 92.0194 30.2102 91.7081 30.7522 91.3842C35.7366 88.402 40.0354 86.349 43.889 84.941Z" fill="#664B3A"/>
<path d="M63.1429 116.375C63.1574 116.343 63.171 116.311 63.1855 116.28C63.1722 116.259 63.159 116.238 63.1457 116.217C63.1442 116.27 63.1429 116.323 63.1429 116.375Z" fill="#DEC8AE"/>
<path d="M52.7434 82.6004C52.7545 83.4794 52.7823 84.4096 52.8406 85.3709V82.5855C52.8085 82.5905 52.7761 82.5951 52.7434 82.6004Z" fill="#DEC8AE"/>
<path d="M63.1019 113.432C63.1491 114.034 63.1818 114.659 63.1982 115.31C63.2379 114.69 63.2602 114.035 63.1019 113.432Z" fill="#F7F1E6"/>
<path d="M63.2108 116.223C63.2108 116.256 63.2118 116.288 63.2118 116.321C63.2118 116.286 63.2128 116.253 63.2128 116.218C63.2121 116.22 63.2111 116.221 63.2108 116.223Z" fill="#F7F1E6"/>
<path d="M97.4514 92.6094C96.6994 92.2129 95.9588 91.8097 95.2474 91.3838C90.5582 88.5784 86.4769 86.5968 82.8007 85.1987C85.7761 88.0907 88.1513 91.4468 88.6204 94.5185C85.5851 92.1273 83.3799 90.5691 76.3263 90.5029C78.0204 92.4965 80.3946 97.6675 81.3191 102.363C76.9399 102.373 69.7761 105.795 63.2117 116.32C63.2031 116.306 63.1941 116.293 63.1855 116.279C63.171 116.311 63.1574 116.343 63.1429 116.374C63.1429 116.323 63.1442 116.27 63.1457 116.217C56.5989 105.774 49.4675 102.373 45.1034 102.363C46.0272 97.6672 48.4015 92.4965 50.0956 90.5029C43.0422 90.5688 40.8367 92.1273 37.8018 94.5185C38.2851 91.3549 40.7898 87.8896 43.8893 84.9407C40.0357 86.3487 35.7369 88.402 30.7525 91.3838C30.2105 91.7081 29.6516 92.0191 29.0837 92.3247C23.2195 95.4787 16.3516 97.9791 16.3516 106.92C16.3516 112.381 16.3516 120.776 16.3516 127.145C16.3516 132.215 21.1451 136 27.8992 136C38.4088 136 53.6632 136 63.0004 136C72.3376 136 87.5917 136 98.101 136C104.856 136 109.649 132.215 109.649 127.145C109.649 120.776 109.649 112.381 109.649 106.92C109.648 98.2498 103.19 95.6359 97.4514 92.6094ZM93.744 123.485C93.744 124.408 93.0512 125.156 92.1958 125.156H89.7389V127.808C89.7389 128.731 89.0461 129.48 88.1907 129.48H87.2968H87.1558C86.3008 129.48 85.6077 128.732 85.6077 127.808V125.156H83.1498C82.296 125.156 81.6023 124.408 81.6023 123.485V122.368C81.6023 121.446 82.296 120.697 83.1498 120.697H85.6077V118.045C85.6077 117.122 86.3005 116.374 87.1558 116.374H87.2968H88.1907C89.0458 116.374 89.7389 117.122 89.7389 118.045V120.697H92.1958C93.0509 120.697 93.744 121.445 93.744 122.368V123.485Z" fill="#F7F1E6"/>
<path d="M73.6778 79.7061C70.4744 81.7384 66.961 82.9201 63.2832 82.9201C59.5875 82.9201 56.0569 81.7271 52.8408 79.6765V82.5851V85.3705C53.0136 88.2069 53.459 91.3066 54.571 94.119C55.0417 95.3092 55.6306 96.4482 56.3696 97.4934C59.9515 102.557 62.5512 106.437 63.1015 113.432C63.2601 114.035 63.2379 114.69 63.1978 115.31C63.2052 115.609 63.2098 115.912 63.2107 116.222C63.2113 116.221 63.212 116.219 63.2126 116.218C63.2342 107.39 66.0208 103.192 70.0524 97.4934C70.8365 96.3853 71.451 95.1711 71.935 93.9029C73.7885 89.0439 73.7037 83.3752 73.6778 79.7061Z" fill="#DEC8AE"/>
<path d="M52.7459 79.6146C52.7776 79.6352 52.8088 79.6562 52.8409 79.6769C56.0569 81.7275 59.5873 82.9204 63.2833 82.9204C66.9611 82.9204 70.4745 81.7384 73.6778 79.7065C74.0242 79.4877 74.1177 79.4202 74.4755 79.1768C81.9471 74.0248 87.6012 64.2439 89.4767 54.2379C86.9414 58.497 84.9935 56.9641 84.5931 50.1237C84.3263 45.5754 81.9163 40.2593 77.1974 36.5176C77.988 38.6701 78.529 41.0653 78.7659 43.7029C78.9303 45.5338 78.3646 49.4409 73.725 49.012C63.1932 47.3024 53.9279 42.0389 48.8022 36.2543C43.4559 40.507 41.6936 46.738 41.7886 50.3025C41.8951 54.2945 39.9832 59.1881 37.7379 57.1279C40.0687 66.0648 45.3104 74.4729 52.0308 79.1355C52.2523 79.2986 52.3165 79.3682 52.7459 79.6146Z" fill="#F3DBBD"/>
<path d="M63.1978 115.31C63.1815 114.659 63.1491 114.034 63.1016 113.432C62.5513 106.438 59.9515 102.557 56.3697 97.4937C55.6306 96.4486 55.0417 95.3096 54.571 94.1193C53.459 91.3069 53.0133 88.2069 52.8409 85.3709C52.7826 84.4093 52.852 83.5347 52.8409 82.656C52.827 81.5673 52.8347 81.4911 52.8409 80.6031C52.8427 80.3184 52.8409 79.8733 52.8409 79.6146C52.38 79.3915 52.5321 79.4295 52.1749 79.2014C49.5924 80.4673 46.464 82.4916 43.8893 84.941C40.7895 87.8896 38.2851 91.3552 37.8018 94.5188C40.837 92.1276 43.0422 90.5694 50.0955 90.5032C48.4018 92.4969 46.0275 97.6678 45.1034 102.363C49.4675 102.373 56.5992 105.774 63.1457 116.217C63.1589 116.238 63.1722 116.258 63.1855 116.28C63.1941 116.293 63.203 116.307 63.2117 116.321C63.2117 116.287 63.2108 116.256 63.2108 116.223C63.2098 115.912 63.2055 115.609 63.1978 115.31Z" fill="white"/>
<path d="M73.6778 79.7061C73.7037 83.3752 73.7886 89.0439 71.935 93.9032C71.4513 95.1717 70.8366 96.3856 70.0525 97.4937C66.0212 103.193 63.2342 107.39 63.2126 116.218C63.2126 116.253 63.2117 116.286 63.2117 116.321C69.7761 105.795 76.9398 102.373 81.3191 102.363C80.3949 97.6675 78.0207 92.4969 76.3263 90.5032C83.3799 90.5691 85.5854 92.1276 88.6204 94.5188C88.1512 91.4468 85.7757 88.0907 82.8006 85.1991C80.1938 82.6657 74.4752 79.1768 74.4752 79.1768C74.4752 79.1768 73.9986 79.5067 73.6778 79.7061Z" fill="white"/>
<path d="M37.7376 57.1276C39.9829 59.1878 41.8947 54.2942 41.7883 50.3022C41.6933 46.7377 43.4555 40.5067 48.8018 36.254C53.9275 42.0385 63.1928 47.3024 73.7247 49.0117C78.3643 49.4405 78.93 45.5334 78.7656 43.7026C78.5287 41.065 77.988 38.6698 77.1971 36.5173C81.9159 40.2589 84.3256 45.5751 84.5928 50.1234C84.9931 56.9641 86.9411 58.4966 89.4763 54.2376C89.7345 53.8038 89.998 53.3127 90.2672 52.7587C90.4458 52.3911 90.6263 52.0002 90.8089 51.5794C92.8787 46.81 90.2768 31.7083 81.8962 21.8305C80.6457 24.2886 78.2865 26.0133 74.7642 26.0133H63.8826H53.0009C48.6886 26.0133 46.1182 23.4299 45.1934 20.0785C45.1718 20 45.1484 19.9161 45.1252 19.8322C36.0978 28.0043 32.762 41.5211 34.8525 50.2499C35.1332 51.4222 35.4201 52.4287 35.7091 53.2907C36.3859 55.3067 37.0765 56.5203 37.7376 57.1276Z" fill="#664B3A"/>
<path d="M53.0009 26.0133H63.8826H74.7645C78.2868 26.0133 80.646 24.2886 81.8965 21.8305C82.1769 21.2795 82.403 20.6921 82.572 20.0782C83.4968 16.7268 85.6687 8.81236 85.6687 8.81236C86.9124 4.8197 84.85 0 80.538 0H63.8826H47.2271C42.9154 0 40.8527 4.8197 42.0961 8.81236C42.0961 8.81236 44.1665 16.3562 45.1252 19.8318C45.1484 19.9157 45.1715 19.9996 45.1934 20.0782C46.1179 23.4299 48.688 26.0133 53.0009 26.0133ZM57.8117 12.4474C57.8117 11.5249 58.5051 10.7767 59.3593 10.7767H61.8171V8.12484C61.8171 7.20191 62.5099 6.45379 63.3653 6.45379H63.5059H64.4002C65.2549 6.45379 65.948 7.20158 65.948 8.12484V10.7767H68.4052C69.26 10.7767 69.9534 11.5249 69.9534 12.4474V13.5648C69.9534 14.4874 69.2603 15.2359 68.4052 15.2359H65.948V17.8878C65.948 18.8107 65.2552 19.5595 64.4002 19.5595H63.5059H63.3653C62.5102 19.5595 61.8171 18.811 61.8171 17.8878V15.2359H59.3593C58.5051 15.2359 57.8117 14.4877 57.8117 13.5648V12.4474Z" fill="#F7F1E6"/>
<path d="M59.3593 15.2358H61.8172V17.8877C61.8172 18.8107 62.51 19.5595 63.3653 19.5595H63.506H64.4002C65.255 19.5595 65.9481 18.811 65.9481 17.8877V15.2358H68.4053C69.2601 15.2358 69.9535 14.4877 69.9535 13.5648V12.4474C69.9535 11.5249 69.2604 10.7767 68.4053 10.7767H65.9481V8.12483C65.9481 7.20191 65.2553 6.45378 64.4002 6.45378H63.506H63.3653C62.5103 6.45378 61.8172 7.20157 61.8172 8.12483V10.7767H59.3593C58.5052 10.7767 57.8118 11.5249 57.8118 12.4474V13.5648C57.8118 14.4877 58.5055 15.2358 59.3593 15.2358Z" fill="#E74424"/>
<path d="M92.1958 120.697H89.7389V118.045C89.7389 117.122 89.0461 116.374 88.1907 116.374H87.2968H87.1559C86.3008 116.374 85.6077 117.122 85.6077 118.045V120.697H83.1499C82.296 120.697 81.6023 121.445 81.6023 122.368V123.485C81.6023 124.408 82.296 125.156 83.1499 125.156H85.6077V127.808C85.6077 128.731 86.3005 129.48 87.1559 129.48H87.2968H88.1907C89.0458 129.48 89.7389 128.732 89.7389 127.808V125.156H92.1958C93.0509 125.156 93.744 124.408 93.744 123.485V122.368C93.744 121.445 93.0509 120.697 92.1958 120.697Z" fill="#E74424"/>
</svg>
